#define batt1half_width 8
#define batt1half_height 8
static unsigned char batt1half_bits[] = {
   0x30, 0xfc, 0x84, 0x84, 0x94, 0xb4, 0x84, 0xfc};
