#define clock3_width 8
#define clock3_height 8
static unsigned char clock3_bits[] = {
   0x3c, 0x76, 0xf7, 0xf7, 0x87, 0xff, 0x7e, 0x3c};
