#define file1_width 8
#define file1_height 8
static unsigned char file1_bits[] = {
   0xff, 0x99, 0x81, 0xff, 0x99, 0x81, 0x81, 0xff};
