#define home1_width 8
#define home1_height 8
static unsigned char home1_bits[] = {
   0x18, 0x3c, 0x7e, 0xff, 0x42, 0x52, 0x52, 0x7e};
