#define info3_width 8
#define info3_height 8
static unsigned char info3_bits[] = {
   0x78, 0xcc, 0xfc, 0xcc, 0xcc, 0xcc, 0xcc, 0x78};
