#define info7_width 8
#define info7_height 8
static unsigned char info7_bits[] = {
   0x3c, 0x66, 0xff, 0xe7, 0xe7, 0xe7, 0x66, 0x3c};
