#define info8_width 8
#define info8_height 8
static unsigned char info8_bits[] = {
   0x3c, 0x66, 0xe7, 0xe7, 0xe7, 0xff, 0x66, 0x3c};
