#define vol3_width 8
#define vol3_height 8
static unsigned char vol3_bits[] = {
   0x20, 0x30, 0xbc, 0x5c, 0x2c, 0x14, 0x28, 0x24};
