#define wireless1_width 8
#define wireless1_height 8
static unsigned char wireless1_bits[] = {
   0xc0, 0xc0, 0xd8, 0xd8, 0xdb, 0xdb, 0xdb, 0xdb};
