#define arch1_width 8
#define arch1_height 8
static unsigned char arch1_bits[] = {
   0x18, 0x18, 0x3c, 0x3c, 0x7e, 0x66, 0xe7, 0xc3};
