#define batt2full_width 8
#define batt2full_height 8
static unsigned char batt2full_bits[] = {
   0x00, 0x30, 0xfc, 0x84, 0xb4, 0xb4, 0x84, 0xfc};
