#define info1_width 8
#define info1_height 8
static unsigned char info1_bits[] = {
   0x70, 0x70, 0x00, 0x78, 0x70, 0x70, 0x70, 0xf8};
