#define info11_width 8
#define info11_height 8
static unsigned char info11_bits[] = {
   0xfc, 0xcc, 0xcc, 0xcc, 0xcc, 0xfc, 0xcc, 0xfc};
