#define temp5_width 8
#define temp5_height 8
static unsigned char temp5_bits[] = {
   0xc4, 0xe0, 0x71, 0x28, 0x16, 0x09, 0x09, 0x06};
