#define vol2_width 8
#define vol2_height 8
static unsigned char vol2_bits[] = {
   0x20, 0x30, 0xbc, 0xbc, 0xbc, 0xbc, 0x30, 0x20};
