#define wireless0_width 12
#define wireless0_height 8
static unsigned char wireless0_bits[] = {
   0x40, 0x00, 0x20, 0x08, 0x50, 0x04, 0x94, 0x02, 0x54, 0x01, 0x95, 0x02,
   0x55, 0x04, 0x35, 0x08 };
